<svg fill="black" xmlns:dc="http://purl.org/dc/elements/1.1/" xmlns:cc="http://creativecommons.org/ns#" xmlns:rdf="http://www.w3.org/1999/02/22-rdf-syntax-ns#" xmlns:svg="http://www.w3.org/2000/svg" xmlns="http://www.w3.org/2000/svg" xmlns:sodipodi="http://sodipodi.sourceforge.net/DTD/sodipodi-0.dtd" xmlns:inkscape="http://www.inkscape.org/namespaces/inkscape" version="1.1" x="0px" y="0px" viewBox="0 0 100 100" style=""><path style="font-size:medium;font-style:normal;font-variant:normal;font-weight:normal;font-stretch:normal;text-indent:0;text-align:start;text-decoration:none;line-height:normal;letter-spacing:normal;word-spacing:normal;text-transform:none;direction:ltr;block-progression:tb;writing-mode:lr-tb;text-anchor:start;baseline-shift:baseline;opacity:1;color:#000000;fill:{{COLOR}};fill-opacity:1;stroke:none;stroke-width:3.99999951999999980;marker:none;visibility:visible;display:inline;overflow:visible;enable-background:accumulate;font-family:Sans;-inkscape-font-specification:Sans" d="M 14 8 L 14 10 L 14 90 L 14 92 L 16 92 L 52 92 L 54 92 L 54 90 L 54 69 L 50 69 L 50 88 L 18 88 L 18 12 L 50 12 L 50 31 L 54 31 L 54 10 L 54 8 L 52 8 L 16 8 L 14 8 z M 70.875 32.65625 L 67.90625 35.34375 L 79.46875 48 L 39 48 L 39 52 L 79.46875 52 L 67.90625 64.65625 L 70.875 67.34375 L 85.46875 51.34375 L 86.71875 50 L 85.46875 48.65625 L 70.875 32.65625 z "/></svg>