<?xml version="1.0" encoding="UTF-8"?>
<svg width="120px" height="189px" viewBox="0 0 120 189" version="1.1" xmlns="http://www.w3.org/2000/svg" xmlns:xlink="http://www.w3.org/1999/xlink">
    <!-- Generator: Sketch 59 (86127) - https://sketch.com -->
    <title>merit</title>
    <desc>Created with Sketch.</desc>
    <g id="Page-1" stroke="none" stroke-width="1" fill="none" fill-rule="evenodd">
        <g id="merit" fill="#111931" fill-rule="nonzero">
            <path d="M62.2157216,107.372208 L17.9477075,189 L0,178.703843 L58.4790939,82.001093 L30.6153976,82.001093 L27.8013224,70.2350951 L58.7793586,70.2350951 C58.2354008,65.7645101 57.6102119,61.4523947 56.8573743,57.3656259 L56.8573743,57.3656259 L25.6893155,57.3656259 L22.8737897,45.2318041 L53.9765735,45.2318041 L53.9765735,45.2318041 L53.7958514,44.6473452 C47.7772662,25.4494112 36.3117386,15.1191071 11.6131372,24.2731205 L11.6131372,24.2731205 L7.03808914,5.15355545 C50.0064066,-10.6410574 64.6410483,11.8950521 71.4644554,45.2318041 L71.4644554,45.2318041 L96.7751762,45.2318041 L100.294221,57.3656259 L73.5764623,57.3656259 L73.5764623,57.3656259 L73.8822002,59.4736191 C74.381802,63.0009859 74.8328841,66.5968385 75.2547536,70.2350951 L75.2547536,70.2350951 L102.404777,70.2350951 L105.923822,82.001093 L76.5326919,82.001093 L76.5326919,82.001093 L76.6691179,83.3217871 C81.1622642,126.921087 84.8814293,171.998111 120,175.394883 L120,175.394883 L105.923822,189 C72.0867431,184.945216 65.77103,146.482193 62.2157216,107.372208 L62.2157216,107.372208 Z" id="Path-2"></path>
        </g>
    </g>
</svg>