<?xml version="1.0" encoding="UTF-8"?>
<svg width="825px" height="201px" viewBox="0 0 825 201" version="1.1" xmlns="http://www.w3.org/2000/svg" xmlns:xlink="http://www.w3.org/1999/xlink">
    <!-- Generator: Sketch 59 (86127) - https://sketch.com -->
    <title>Artboard</title>
    <desc>Created with Sketch.</desc>
    <g id="Artboard" stroke="none" stroke-width="1" fill="none" fill-rule="evenodd">
        <g id="merit" transform="translate(7.000000, 16.000000)" fill="#247FCC" fill-rule="nonzero">
            <path d="M51.8138858,88.6246794 L15.2927742,156 L0.485915493,147.501585 L48.7311679,67.6834419 L25.7436185,67.6834419 L23.4220065,57.9718245 L48.9788863,57.9718245 C48.5301211,54.2818179 48.0143403,50.7226115 47.3932493,47.3494055 L47.3932493,47.3494055 L21.6796007,47.3494055 L19.356792,37.3341875 L45.0165887,37.3341875 L45.0165887,37.3341875 L44.8674929,36.851777 C39.9021601,21.0058632 30.4430998,12.479263 10.0667537,20.0349566 L10.0667537,20.0349566 L6.29233903,4.25372831 C41.7412009,-8.78309503 53.8147803,9.81813827 59.4440912,37.3341875 L59.4440912,37.3341875 L80.3254358,37.3341875 L83.2286476,47.3494055 L61.1864969,47.3494055 L61.1864969,47.3494055 L61.4387307,49.0893364 C61.8509021,52.0008138 62.2230448,54.9688191 62.5710872,57.9718245 L62.5710872,57.9718245 L84.9698566,57.9718245 L87.8730684,67.6834419 L63.6253863,67.6834419 L63.6253863,67.6834419 L63.7379377,68.7735386 C67.4447835,104.760262 70.5130946,141.966695 99.4859155,144.77038 L99.4859155,144.77038 L87.8730684,156 C59.9574786,152.653194 54.7470153,120.905937 51.8138858,88.6246794 L51.8138858,88.6246794 Z" id="Path-2"></path>
        </g>
        <text id="Меритерра" font-family="Roboto-Medium, Roboto" font-size="120" font-weight="400" line-spacing="142" letter-spacing="5" fill="#247FCC">
            <tspan x="136.021484" y="111">Меритерра</tspan>
        </text>
        <text id="технологии-вознаграж" opacity="0.664736793" font-family="Roboto-Regular, Roboto" font-size="40" font-weight="normal" fill="#000000">
            <tspan x="136" y="167">технологии вознаграждения заслуг</tspan>
        </text>
    </g>
</svg>