<svg width="235" height="275" viewBox="0 0 235 275" fill="none" xmlns="http://www.w3.org/2000/svg">
<path d="M10.1611 211.984L20.125 235.827L30.126 211.984H33.1689V239H30.8867V227.236L31.0723 215.176L21.0156 239H19.2529L9.2334 215.269L9.41895 227.162V239H7.13672V211.984H10.1611ZM54.9336 226.049H42.2979V237.07H56.8262V239H40.0156V211.984H56.7334V213.933H42.2979V224.119H54.9336V226.049ZM71.7441 227.756H63.8955V239H61.5947V211.984H70.3711C73.2533 211.984 75.5046 212.683 77.125 214.081C78.7454 215.479 79.5557 217.433 79.5557 219.944C79.5557 221.676 79.0485 223.204 78.0342 224.527C77.0199 225.851 75.6592 226.766 73.9521 227.273L80.7061 238.759V239H78.2754L71.7441 227.756ZM63.8955 225.808H70.8906C72.8079 225.808 74.348 225.263 75.5107 224.175C76.6735 223.086 77.2549 221.676 77.2549 219.944C77.2549 218.039 76.6488 216.561 75.4365 215.51C74.2243 214.458 72.5234 213.933 70.334 213.933H63.8955V225.808ZM88.5547 239H86.2725V211.984H88.5547V239ZM113.678 213.933H104.419V239H102.137V213.933H92.8965V211.984H113.678V213.933ZM136.686 213.933H127.427V239H125.145V213.933H115.904V211.984H136.686V213.933ZM155.982 226.049H143.347V237.07H157.875V239H141.064V211.984H157.782V213.933H143.347V224.119H155.982V226.049ZM172.793 227.756H164.944V239H162.644V211.984H171.42C174.302 211.984 176.553 212.683 178.174 214.081C179.794 215.479 180.604 217.433 180.604 219.944C180.604 221.676 180.097 223.204 179.083 224.527C178.069 225.851 176.708 226.766 175.001 227.273L181.755 238.759V239H179.324L172.793 227.756ZM164.944 225.808H171.939C173.857 225.808 175.397 225.263 176.56 224.175C177.722 223.086 178.304 221.676 178.304 219.944C178.304 218.039 177.698 216.561 176.485 215.51C175.273 214.458 173.572 213.933 171.383 213.933H164.944V225.808ZM196.914 227.756H189.065V239H186.765V211.984H195.541C198.423 211.984 200.674 212.683 202.295 214.081C203.915 215.479 204.726 217.433 204.726 219.944C204.726 221.676 204.218 223.204 203.204 224.527C202.19 225.851 200.829 226.766 199.122 227.273L205.876 238.759V239H203.445L196.914 227.756ZM189.065 225.808H196.061C197.978 225.808 199.518 225.263 200.681 224.175C201.843 223.086 202.425 221.676 202.425 219.944C202.425 218.039 201.819 216.561 200.606 215.51C199.394 214.458 197.693 213.933 195.504 213.933H189.065V225.808ZM225.525 231.43H213.261L210.478 239H208.084L218.308 211.984H220.479L230.702 239H228.327L225.525 231.43ZM213.966 229.481H224.802L219.384 214.768L213.966 229.481Z" fill="#12121D"/>
<path d="M13.8081 251.54H11.2109V258H10.4199V251.54H7.92163V250.868H13.8081V251.54ZM17.3413 258.132C16.7349 258.132 16.1855 257.982 15.6934 257.684C15.2056 257.385 14.8254 256.969 14.553 256.438C14.2805 255.902 14.1443 255.302 14.1443 254.638V254.355C14.1443 253.669 14.2761 253.052 14.5398 252.502C14.8079 251.953 15.1792 251.522 15.6538 251.21C16.1284 250.894 16.6426 250.736 17.1963 250.736C18.062 250.736 18.7476 251.032 19.2529 251.626C19.7627 252.215 20.0176 253.021 20.0176 254.045V254.487H14.9287V254.638C14.9287 255.447 15.1594 256.121 15.6208 256.662C16.0867 257.198 16.6711 257.466 17.3743 257.466C17.7961 257.466 18.1675 257.389 18.4883 257.235C18.8135 257.082 19.1079 256.835 19.3716 256.497L19.866 256.873C19.2859 257.712 18.4443 258.132 17.3413 258.132ZM17.1963 251.408C16.603 251.408 16.1021 251.626 15.6934 252.061C15.2891 252.496 15.043 253.08 14.9551 253.814H19.2332V253.729C19.2112 253.043 19.0156 252.485 18.6465 252.054C18.2773 251.624 17.7939 251.408 17.1963 251.408ZM23.7947 253.761L25.7195 250.868H26.6555L24.2363 254.368L26.761 258H25.8315L23.8013 254.981L21.771 258H20.8416L23.3596 254.368L20.9404 250.868H21.8699L23.7947 253.761ZM33.5967 258H32.8057V254.73H28.9626V258H28.1716V250.868H28.9626V254.065H32.8057V250.868H33.5967V258ZM35.2776 254.328C35.2776 253.643 35.4094 253.025 35.6731 252.476C35.9412 251.927 36.3169 251.5 36.8003 251.197C37.2881 250.89 37.8396 250.736 38.4548 250.736C39.4041 250.736 40.1731 251.07 40.762 251.738C41.3508 252.401 41.6453 253.282 41.6453 254.381V254.546C41.6453 255.236 41.5112 255.858 41.2432 256.411C40.9795 256.961 40.606 257.385 40.1226 257.684C39.6392 257.982 39.0876 258.132 38.468 258.132C37.5232 258.132 36.7542 257.8 36.1609 257.136C35.572 256.469 35.2776 255.585 35.2776 254.487V254.328ZM36.0686 254.546C36.0686 255.398 36.2883 256.099 36.7278 256.649C37.1716 257.194 37.7517 257.466 38.468 257.466C39.1799 257.466 39.7556 257.194 40.1951 256.649C40.6389 256.099 40.8608 255.376 40.8608 254.48V254.328C40.8608 253.783 40.7598 253.285 40.5576 252.832C40.3555 252.379 40.072 252.03 39.7073 251.784C39.3425 251.533 38.925 251.408 38.4548 251.408C37.7517 251.408 37.1782 251.685 36.7344 252.239C36.2905 252.788 36.0686 253.509 36.0686 254.401V254.546ZM48.6589 250.868V258H47.8679V251.547H44.9478L44.8225 254.216C44.7698 255.205 44.6709 255.961 44.5259 256.484C44.3809 257.002 44.1655 257.385 43.8799 257.631C43.5942 257.877 43.2141 258 42.7395 258H42.4363V257.301L42.6802 257.288C43.1328 257.279 43.458 257.06 43.6558 256.629C43.8535 256.198 43.9832 255.429 44.0447 254.322L44.1897 250.868H48.6589ZM50.3464 254.328C50.3464 253.643 50.4783 253.025 50.7419 252.476C51.01 251.927 51.3857 251.5 51.8691 251.197C52.3569 250.89 52.9084 250.736 53.5237 250.736C54.4729 250.736 55.2419 251.07 55.8308 251.738C56.4197 252.401 56.7141 253.282 56.7141 254.381V254.546C56.7141 255.236 56.5801 255.858 56.312 256.411C56.0483 256.961 55.6748 257.385 55.1914 257.684C54.708 257.982 54.1565 258.132 53.5369 258.132C52.592 258.132 51.823 257.8 51.2297 257.136C50.6409 256.469 50.3464 255.585 50.3464 254.487V254.328ZM51.1375 254.546C51.1375 255.398 51.3572 256.099 51.7966 256.649C52.2405 257.194 52.8206 257.466 53.5369 257.466C54.2488 257.466 54.8245 257.194 55.2639 256.649C55.7078 256.099 55.9297 255.376 55.9297 254.48V254.328C55.9297 253.783 55.8286 253.285 55.6265 252.832C55.4243 252.379 55.1409 252.03 54.7761 251.784C54.4114 251.533 53.9939 251.408 53.5237 251.408C52.8206 251.408 52.2471 251.685 51.8032 252.239C51.3594 252.788 51.1375 253.509 51.1375 254.401V254.546ZM62.7917 251.547H59.186V258H58.395V250.868H62.7917V251.547ZM68.731 250.868H69.522V258H68.731V252.14L64.8813 258H64.0969V250.868H64.8813V256.734L68.731 250.868ZM76.3247 250.868H77.1157V258H76.3247V252.14L72.4751 258H71.6907V250.868H72.4751V256.734L76.3247 250.868ZM82.6001 258V250.868H85.217C86.1223 250.868 86.8167 251.03 87.3 251.355C87.7834 251.676 88.0251 252.149 88.0251 252.773C88.0251 253.129 87.9175 253.447 87.7021 253.729C87.4868 254.005 87.1726 254.208 86.7595 254.335C87.2253 254.423 87.5989 254.623 87.8801 254.935C88.1658 255.247 88.3086 255.609 88.3086 256.022C88.3086 256.651 88.0757 257.139 87.6099 257.486C87.1484 257.829 86.4937 258 85.6455 258H82.6001ZM83.3845 254.717V257.341H85.6719C86.2651 257.341 86.7222 257.227 87.043 256.998C87.3638 256.77 87.5242 256.44 87.5242 256.009C87.5242 255.614 87.3638 255.3 87.043 255.067C86.7222 254.834 86.2651 254.717 85.6719 254.717H83.3845ZM83.3845 254.058H85.3818C86.6211 254.041 87.2407 253.619 87.2407 252.792C87.2407 252.357 87.0693 252.041 86.7266 251.843C86.3882 251.641 85.885 251.54 85.217 251.54H83.3845V254.058ZM89.6335 254.328C89.6335 253.643 89.7654 253.025 90.0291 252.476C90.2971 251.927 90.6729 251.5 91.1562 251.197C91.644 250.89 92.1956 250.736 92.8108 250.736C93.76 250.736 94.5291 251.07 95.1179 251.738C95.7068 252.401 96.0012 253.282 96.0012 254.381V254.546C96.0012 255.236 95.8672 255.858 95.5991 256.411C95.3354 256.961 94.9619 257.385 94.4785 257.684C93.9951 257.982 93.4436 258.132 92.824 258.132C91.8792 258.132 91.1101 257.8 90.5168 257.136C89.928 256.469 89.6335 255.585 89.6335 254.487V254.328ZM90.4246 254.546C90.4246 255.398 90.6443 256.099 91.0837 256.649C91.5276 257.194 92.1077 257.466 92.824 257.466C93.5359 257.466 94.1116 257.194 94.551 256.649C94.9949 256.099 95.2168 255.376 95.2168 254.48V254.328C95.2168 253.783 95.1157 253.285 94.9136 252.832C94.7114 252.379 94.428 252.03 94.0632 251.784C93.6985 251.533 93.281 251.408 92.8108 251.408C92.1077 251.408 91.5342 251.685 91.0903 252.239C90.6465 252.788 90.4246 253.509 90.4246 254.401V254.546ZM101.815 252.753C101.815 252.322 101.655 251.99 101.334 251.758C101.013 251.525 100.572 251.408 100.009 251.408C99.4993 251.408 99.062 251.54 98.6973 251.804C98.3369 252.063 98.1567 252.393 98.1567 252.792H97.3723C97.3723 252.199 97.625 251.709 98.1304 251.323C98.6401 250.936 99.2664 250.742 100.009 250.742C100.826 250.742 101.464 250.918 101.921 251.27C102.378 251.621 102.606 252.12 102.606 252.766C102.606 253.109 102.501 253.419 102.29 253.696C102.079 253.972 101.771 254.188 101.367 254.342C102.281 254.592 102.738 255.159 102.738 256.042C102.738 256.684 102.49 257.191 101.993 257.565C101.497 257.938 100.837 258.125 100.016 258.125C99.2202 258.125 98.561 257.925 98.0381 257.525C97.5151 257.125 97.2537 256.603 97.2537 255.957H98.0447C98.0447 256.387 98.2336 256.748 98.6116 257.038C98.9939 257.323 99.4619 257.466 100.016 257.466C100.618 257.466 101.088 257.341 101.426 257.09C101.769 256.835 101.94 256.49 101.94 256.055C101.94 255.576 101.784 255.231 101.472 255.021C101.16 254.81 100.684 254.704 100.042 254.704H98.9543V254.019H100.174C101.268 253.992 101.815 253.57 101.815 252.753ZM109.956 258H109.165V254.73H105.322V258H104.531V250.868H105.322V254.065H109.165V250.868H109.956V258ZM116.574 258C116.495 257.776 116.445 257.444 116.423 257.005C116.146 257.365 115.792 257.644 115.361 257.842C114.935 258.035 114.482 258.132 114.003 258.132C113.318 258.132 112.762 257.941 112.336 257.558C111.914 257.176 111.703 256.693 111.703 256.108C111.703 255.414 111.991 254.865 112.566 254.46C113.146 254.056 113.953 253.854 114.986 253.854H116.416V253.043C116.416 252.533 116.258 252.133 115.941 251.843C115.629 251.549 115.172 251.402 114.57 251.402C114.021 251.402 113.566 251.542 113.206 251.823C112.845 252.105 112.665 252.443 112.665 252.839L111.874 252.832C111.874 252.265 112.138 251.775 112.665 251.362C113.193 250.945 113.841 250.736 114.61 250.736C115.405 250.736 116.031 250.936 116.489 251.336C116.95 251.731 117.187 252.285 117.2 252.997V256.372C117.2 257.062 117.273 257.578 117.418 257.921V258H116.574ZM114.096 257.433C114.623 257.433 115.093 257.306 115.506 257.051C115.924 256.796 116.227 256.455 116.416 256.029V254.46H115.005C114.219 254.469 113.604 254.614 113.16 254.895C112.716 255.172 112.494 255.554 112.494 256.042C112.494 256.442 112.641 256.774 112.936 257.038C113.234 257.301 113.621 257.433 114.096 257.433ZM123.753 251.547H120.147V258H119.356V250.868H123.753V251.547ZM130.74 254.506C130.74 255.618 130.494 256.501 130.002 257.156C129.51 257.807 128.85 258.132 128.024 258.132C127.049 258.132 126.302 257.789 125.783 257.104V260.742H124.999V250.868H125.73L125.77 251.876C126.284 251.116 127.029 250.736 128.004 250.736C128.857 250.736 129.525 251.059 130.008 251.705C130.496 252.351 130.74 253.247 130.74 254.394V254.506ZM129.949 254.368C129.949 253.458 129.762 252.74 129.389 252.212C129.015 251.685 128.494 251.421 127.826 251.421C127.343 251.421 126.928 251.538 126.581 251.771C126.233 252.004 125.968 252.342 125.783 252.786V256.207C125.972 256.616 126.242 256.928 126.594 257.143C126.945 257.358 127.361 257.466 127.84 257.466C128.503 257.466 129.02 257.202 129.389 256.675C129.762 256.143 129.949 255.374 129.949 254.368ZM136.996 258C136.917 257.776 136.866 257.444 136.844 257.005C136.567 257.365 136.213 257.644 135.783 257.842C135.356 258.035 134.904 258.132 134.425 258.132C133.739 258.132 133.183 257.941 132.757 257.558C132.335 257.176 132.124 256.693 132.124 256.108C132.124 255.414 132.412 254.865 132.988 254.46C133.568 254.056 134.374 253.854 135.407 253.854H136.837V253.043C136.837 252.533 136.679 252.133 136.363 251.843C136.051 251.549 135.594 251.402 134.992 251.402C134.442 251.402 133.988 251.542 133.627 251.823C133.267 252.105 133.087 252.443 133.087 252.839L132.296 252.832C132.296 252.265 132.559 251.775 133.087 251.362C133.614 250.945 134.262 250.736 135.031 250.736C135.827 250.736 136.453 250.936 136.91 251.336C137.371 251.731 137.609 252.285 137.622 252.997V256.372C137.622 257.062 137.694 257.578 137.839 257.921V258H136.996ZM134.517 257.433C135.044 257.433 135.515 257.306 135.928 257.051C136.345 256.796 136.648 256.455 136.837 256.029V254.46H135.427C134.64 254.469 134.025 254.614 133.581 254.895C133.137 255.172 132.915 255.554 132.915 256.042C132.915 256.442 133.062 256.774 133.357 257.038C133.656 257.301 134.042 257.433 134.517 257.433ZM145.183 254.704H144.233V258H143.442V254.704H142.5L139.863 258H138.861L141.814 254.342L139.191 250.868H140.146L142.487 253.999H143.442V250.868H144.233V253.999H145.196L147.536 250.868H148.505L145.868 254.342L148.828 258H147.819L145.183 254.704ZM149.929 257.334L150.278 256.879C150.832 256.128 151.15 255.029 151.234 253.583L151.359 250.868H155.571V257.334H156.31V260.096H155.525V258H150.166V260.096H149.408L149.415 257.334H149.929ZM150.838 257.334H154.78V251.606H152.111L152.025 253.458C151.946 255.159 151.55 256.451 150.838 257.334ZM160.594 258.132C159.988 258.132 159.438 257.982 158.946 257.684C158.458 257.385 158.078 256.969 157.806 256.438C157.533 255.902 157.397 255.302 157.397 254.638V254.355C157.397 253.669 157.529 253.052 157.793 252.502C158.061 251.953 158.432 251.522 158.907 251.21C159.381 250.894 159.896 250.736 160.449 250.736C161.315 250.736 162 251.032 162.506 251.626C163.016 252.215 163.271 253.021 163.271 254.045V254.487H158.182V254.638C158.182 255.447 158.412 256.121 158.874 256.662C159.34 257.198 159.924 257.466 160.627 257.466C161.049 257.466 161.42 257.389 161.741 257.235C162.066 257.082 162.361 256.835 162.625 256.497L163.119 256.873C162.539 257.712 161.697 258.132 160.594 258.132ZM160.449 251.408C159.856 251.408 159.355 251.626 158.946 252.061C158.542 252.496 158.296 253.08 158.208 253.814H162.486V253.729C162.464 253.043 162.269 252.485 161.899 252.054C161.53 251.624 161.047 251.408 160.449 251.408ZM170.284 258H169.493V254.73H165.65V258H164.859V250.868H165.65V254.065H169.493V250.868H170.284V258ZM177.087 250.868H177.878V258H177.087V252.14L173.237 258H172.453V250.868H173.237V256.734L177.087 250.868ZM185.195 250.868V258H184.404V255.126H182.189L180.449 258H179.579L181.372 255.027C180.884 254.9 180.504 254.654 180.231 254.289C179.963 253.924 179.829 253.493 179.829 252.997C179.829 252.351 180.06 251.834 180.521 251.448C180.987 251.061 181.615 250.868 182.406 250.868H185.195ZM180.62 253.01C180.62 253.427 180.752 253.77 181.016 254.038C181.284 254.306 181.655 254.445 182.13 254.454H184.404V251.54H182.387C181.837 251.54 181.405 251.672 181.088 251.936C180.776 252.199 180.62 252.557 180.62 253.01ZM194.786 252.753C194.786 252.322 194.625 251.99 194.305 251.758C193.984 251.525 193.542 251.408 192.98 251.408C192.47 251.408 192.033 251.54 191.668 251.804C191.308 252.063 191.127 252.393 191.127 252.792H190.343C190.343 252.199 190.596 251.709 191.101 251.323C191.611 250.936 192.237 250.742 192.98 250.742C193.797 250.742 194.434 250.918 194.891 251.27C195.348 251.621 195.577 252.12 195.577 252.766C195.577 253.109 195.471 253.419 195.26 253.696C195.05 253.972 194.742 254.188 194.338 254.342C195.252 254.592 195.709 255.159 195.709 256.042C195.709 256.684 195.46 257.191 194.964 257.565C194.467 257.938 193.808 258.125 192.986 258.125C192.191 258.125 191.532 257.925 191.009 257.525C190.486 257.125 190.224 256.603 190.224 255.957H191.015C191.015 256.387 191.204 256.748 191.582 257.038C191.965 257.323 192.433 257.466 192.986 257.466C193.588 257.466 194.059 257.341 194.397 257.09C194.74 256.835 194.911 256.49 194.911 256.055C194.911 255.576 194.755 255.231 194.443 255.021C194.131 254.81 193.654 254.704 193.013 254.704H191.925V254.019H193.145C194.239 253.992 194.786 253.57 194.786 252.753ZM201.951 258C201.872 257.776 201.822 257.444 201.8 257.005C201.523 257.365 201.169 257.644 200.738 257.842C200.312 258.035 199.859 258.132 199.38 258.132C198.695 258.132 198.139 257.941 197.713 257.558C197.291 257.176 197.08 256.693 197.08 256.108C197.08 255.414 197.368 254.865 197.943 254.46C198.523 254.056 199.33 253.854 200.363 253.854H201.793V253.043C201.793 252.533 201.635 252.133 201.318 251.843C201.006 251.549 200.549 251.402 199.947 251.402C199.398 251.402 198.943 251.542 198.583 251.823C198.222 252.105 198.042 252.443 198.042 252.839L197.251 252.832C197.251 252.265 197.515 251.775 198.042 251.362C198.57 250.945 199.218 250.736 199.987 250.736C200.782 250.736 201.408 250.936 201.865 251.336C202.327 251.731 202.564 252.285 202.577 252.997V256.372C202.577 257.062 202.65 257.578 202.795 257.921V258H201.951ZM199.473 257.433C200 257.433 200.47 257.306 200.883 257.051C201.301 256.796 201.604 256.455 201.793 256.029V254.46H200.382C199.596 254.469 198.98 254.614 198.537 254.895C198.093 255.172 197.871 255.554 197.871 256.042C197.871 256.442 198.018 256.774 198.312 257.038C198.611 257.301 198.998 257.433 199.473 257.433ZM207.323 257.466C207.873 257.466 208.332 257.312 208.701 257.005C209.075 256.693 209.277 256.291 209.308 255.798H210.066C210.044 256.233 209.907 256.631 209.657 256.991C209.406 257.347 209.073 257.626 208.655 257.829C208.242 258.031 207.798 258.132 207.323 258.132C206.387 258.132 205.645 257.807 205.095 257.156C204.551 256.506 204.278 255.631 204.278 254.533V254.295C204.278 253.592 204.401 252.97 204.647 252.43C204.893 251.889 205.245 251.472 205.702 251.177C206.163 250.883 206.702 250.736 207.317 250.736C208.099 250.736 208.743 250.969 209.248 251.435C209.758 251.9 210.031 252.513 210.066 253.274H209.308C209.272 252.716 209.07 252.265 208.701 251.922C208.336 251.58 207.875 251.408 207.317 251.408C206.605 251.408 206.051 251.665 205.656 252.179C205.265 252.694 205.069 253.414 205.069 254.342V254.572C205.069 255.482 205.265 256.192 205.656 256.701C206.051 257.211 206.607 257.466 207.323 257.466ZM217.132 250.868V258H216.341V251.547H213.421L213.296 254.216C213.243 255.205 213.144 255.961 212.999 256.484C212.854 257.002 212.639 257.385 212.353 257.631C212.067 257.877 211.687 258 211.213 258H210.909V257.301L211.153 257.288C211.606 257.279 211.931 257.06 212.129 256.629C212.327 256.198 212.456 255.429 212.518 254.322L212.663 250.868H217.132ZM221.516 256.866L223.599 250.868H224.449L221.404 259.213L221.245 259.582C220.854 260.448 220.25 260.881 219.433 260.881C219.244 260.881 219.042 260.85 218.826 260.788L218.82 260.136L219.228 260.175C219.615 260.175 219.927 260.079 220.164 259.885C220.406 259.696 220.61 259.369 220.777 258.903L221.127 257.941L218.437 250.868H219.301L221.516 256.866ZM230.118 251.547H226.512V258H225.721V250.868H230.118V251.547Z" fill="#4F4F4F"/>
<g filter="url(#filter0_iif)">
<circle cx="117.5" cy="90.5" r="88.5" fill="#F6F6F6"/>
</g>
<g filter="url(#filter1_ddif)">
<path d="M118.403 98.7409L90.3669 151L79 144.408L116.037 82.4981H98.3898L96.6075 74.9653H116.227C115.882 72.1032 115.486 69.3425 115.01 66.7261H95.2699L93.4867 58.9579H113.185L113.071 58.5838C109.259 46.293 101.997 39.6794 86.355 45.5399L83.4575 33.2994C110.671 23.1875 119.939 37.6153 124.261 58.9579H140.291L142.52 66.7261H125.598L125.792 68.0757C126.108 70.334 126.394 72.6361 126.661 74.9653H143.856L146.085 82.4981H127.471L127.557 83.3436C130.403 111.256 132.758 140.115 155 142.29L146.085 151C124.655 148.404 120.655 123.78 118.403 98.7409Z" fill="#F6F6F6"/>
</g>
<defs>
<filter id="filter0_iif" x="25" y="-2" width="184" height="184" filterUnits="userSpaceOnUse" color-interpolation-filters="sRGB">
<feFlood flood-opacity="0" result="BackgroundImageFix"/>
<feBlend mode="normal" in="SourceGraphic" in2="BackgroundImageFix" result="shape"/>
<feColorMatrix in="SourceAlpha" type="matrix" values="0 0 0 0 0 0 0 0 0 0 0 0 0 0 0 0 0 0 127 0" result="hardAlpha"/>
<feOffset dx="3" dy="3"/>
<feGaussianBlur stdDeviation="1.5"/>
<feComposite in2="hardAlpha" operator="arithmetic" k2="-1" k3="1"/>
<feColorMatrix type="matrix" values="0 0 0 0 0.815686 0 0 0 0 0.85098 0 0 0 0 0.890196 0 0 0 0.7 0"/>
<feBlend mode="normal" in2="shape" result="effect1_innerShadow"/>
<feColorMatrix in="SourceAlpha" type="matrix" values="0 0 0 0 0 0 0 0 0 0 0 0 0 0 0 0 0 0 127 0" result="hardAlpha"/>
<feOffset dx="-6" dy="-4"/>
<feGaussianBlur stdDeviation="2"/>
<feComposite in2="hardAlpha" operator="arithmetic" k2="-1" k3="1"/>
<feColorMatrix type="matrix" values="0 0 0 0 0.968627 0 0 0 0 0.976471 0 0 0 0 0.984314 0 0 0 1 0"/>
<feBlend mode="normal" in2="effect1_innerShadow" result="effect2_innerShadow"/>
<feGaussianBlur stdDeviation="1" result="effect3_foregroundBlur"/>
</filter>
<filter id="filter1_ddif" x="63" y="12" width="102" height="147" filterUnits="userSpaceOnUse" color-interpolation-filters="sRGB">
<feFlood flood-opacity="0" result="BackgroundImageFix"/>
<feColorMatrix in="SourceAlpha" type="matrix" values="0 0 0 0 0 0 0 0 0 0 0 0 0 0 0 0 0 0 127 0"/>
<feOffset dx="2" dy="3"/>
<feGaussianBlur stdDeviation="1.5"/>
<feColorMatrix type="matrix" values="0 0 0 0 0.821076 0 0 0 0 0.856372 0 0 0 0 0.891667 0 0 0 1 0"/>
<feBlend mode="normal" in2="BackgroundImageFix" result="effect1_dropShadow"/>
<feColorMatrix in="SourceAlpha" type="matrix" values="0 0 0 0 0 0 0 0 0 0 0 0 0 0 0 0 0 0 127 0"/>
<feOffset dx="-3" dy="-5"/>
<feGaussianBlur stdDeviation="6.5"/>
<feColorMatrix type="matrix" values="0 0 0 0 1 0 0 0 0 1 0 0 0 0 1 0 0 0 0.7 0"/>
<feBlend mode="normal" in2="effect1_dropShadow" result="effect2_dropShadow"/>
<feBlend mode="normal" in="SourceGraphic" in2="effect2_dropShadow" result="shape"/>
<feColorMatrix in="SourceAlpha" type="matrix" values="0 0 0 0 0 0 0 0 0 0 0 0 0 0 0 0 0 0 127 0" result="hardAlpha"/>
<feOffset dx="1" dy="1"/>
<feGaussianBlur stdDeviation="2"/>
<feComposite in2="hardAlpha" operator="arithmetic" k2="-1" k3="1"/>
<feColorMatrix type="matrix" values="0 0 0 0 1 0 0 0 0 1 0 0 0 0 1 0 0 0 0.57 0"/>
<feBlend mode="normal" in2="shape" result="effect3_innerShadow"/>
<feGaussianBlur stdDeviation="0.5" result="effect4_foregroundBlur"/>
</filter>
</defs>
</svg>
