<svg width="24" height="23" viewBox="0 0 24 23" fill="none" xmlns="http://www.w3.org/2000/svg">
<path d="M1 3V15.5C1 16.6046 1.89543 17.5 3 17.5H9.25L11.2026 21.4052C11.5518 22.1037 12.5311 22.1502 12.945 21.488L15.4375 17.5H21C22.1046 17.5 23 16.6046 23 15.5V3C23 1.89543 22.1046 1 21 1H3C1.89543 1 1 1.89543 1 3Z" stroke="#8B8B8B"/>
<circle cx="12" cy="6.5" r="2.25" stroke="#8B8B8B"/>
<path d="M5.125 13.375L8.99807 10.793C9.16234 10.6834 9.35535 10.625 9.55278 10.625H14.4472C14.6446 10.625 14.8377 10.6834 15.0019 10.7929L18.875 13.375" stroke="#8B8B8B"/>
</svg>
